<svg width="74" height="46" viewBox="0 0 74 46" fill="none" xmlns="http://www.w3.org/2000/svg">
    <path fill-rule="evenodd" clip-rule="evenodd" d="M36.9325 11.1719L33.5578 14.5697L33.6992 14.7117C36.4735 17.4983 37.8599 18.8916 38.4332 20.4764C39.0399 22.1533 39.0399 23.9913 38.4332 25.6681C37.8599 27.2529 36.4735 28.6478 33.6992 31.4344L37.0723 34.8242L40.1579 31.7233C43.2038 28.6638 44.7252 27.1332 45.2826 25.3633C45.7512 23.8722 45.7512 22.2723 45.2826 20.7812C44.7252 19.0113 43.2038 17.4808 40.1579 14.4213L36.9325 11.1719ZM36.9325 11.1719L31.425 5.645C28.3807 2.58551 26.8577 1.05497 25.0917 0.496377C23.6078 0.0239302 22.0147 0.0239302 20.5308 0.496377C18.7696 1.05497 17.2482 2.58551 14.2022 5.645L5.46778 14.4229C2.43137 17.4808 0.908394 19.0113 0.352565 20.7812C-0.117522 22.2721 -0.117522 23.8725 0.352565 25.3633C0.908394 27.1316 2.43137 28.6638 5.47572 31.7233L14.2102 40.5011C17.2561 43.5606 18.7775 45.0912 20.5387 45.6514C22.0211 46.1184 23.6106 46.1162 25.0917 45.645C26.8513 45.0848 28.3743 43.5542 31.4187 40.4948L37.0659 34.8195L42.5734 40.3527C45.6177 43.4138 47.1407 44.9427 48.9003 45.5029C50.3845 45.9737 51.977 45.9737 53.4613 45.5029C55.2225 44.9427 56.7438 43.4138 59.7898 40.3527L68.5243 31.5748C71.5686 28.5153 73.0916 26.9848 73.6474 25.2165C74.1175 23.7251 74.1175 22.1242 73.6474 20.6328C73.0916 18.8629 71.5686 17.3339 68.5243 14.2729L59.7898 5.49498C56.7502 2.44347 55.2288 0.912927 53.4676 0.354335C51.9836 -0.118112 50.3906 -0.118112 48.9067 0.354335C47.1471 0.912927 45.6241 2.44347 42.5797 5.50296L36.9325 11.1719ZM33.5578 14.5697C30.785 17.3563 29.3986 18.7496 28.8253 20.3344C28.2187 22.0112 28.2187 23.8492 28.8253 25.5261C29.3986 27.1109 30.785 28.5058 33.5578 31.2923L33.6992 31.4344L31.425 33.7198C28.3807 36.7793 26.8577 38.3035 25.0917 38.8685C23.6078 39.3409 22.0147 39.3409 20.5308 38.8685C18.7696 38.3099 17.2482 36.7793 14.2022 33.7198L12.2283 31.7233C9.17755 28.6638 7.65616 27.1316 7.09875 25.3633C6.63021 23.8722 6.63021 22.2723 7.09875 20.7812C7.65616 19.0113 9.17755 17.4808 12.2283 14.4213L14.2134 12.4263C17.2593 9.36522 18.7807 7.83627 20.5419 7.27609C22.0259 6.80364 23.6189 6.80364 25.1029 7.27609C26.8625 7.83627 28.3854 9.36522 31.4298 12.4263L33.5578 14.5697Z" fill="#002665"/>
</svg>
